<?xml version="1.0" standalone="no"?>
<!DOCTYPE svg PUBLIC "-//W3C//DTD SVG 20010904//EN"
 "http://www.w3.org/TR/2001/REC-SVG-20010904/DTD/svg10.dtd">
<svg version="1.0" xmlns="http://www.w3.org/2000/svg"
 width="1200.000000pt" height="1200.000000pt" viewBox="0 0 1200.000000 1200.000000"
 preserveAspectRatio="xMidYMid meet">
<metadata>
Created by potrace 1.14, written by Peter Selinger 2001-2017
</metadata>
<g transform="translate(0.000000,1200.000000) scale(0.100000,-0.100000)"
fill="#000000" stroke="none">
<path d="M0 6000 l0 -6000 6000 0 6000 0 0 6000 0 6000 -6000 0 -6000 0 0
-6000z m6828 2599 c449 -259 827 -478 840 -486 l22 -13 0 -975 0 -975 -22 -13
c-105 -65 -1659 -957 -1668 -957 -10 0 -311 172 -1305 747 l-380 219 0 979 0
979 380 220 c209 120 585 337 835 482 250 145 461 263 468 263 7 1 381 -211
830 -470z m-2338 -4195 c35 -21 60 -64 60 -104 0 -90 -102 -149 -180 -104 -56
34 -76 108 -44 163 34 58 108 78 164 45z m-675 -69 c116 -31 213 -100 277
-199 123 -190 98 -429 -61 -586 -115 -113 -201 -140 -448 -140 l-173 0 0 470
0 470 173 0 c123 0 190 -4 232 -15z m1361 -228 c28 -14 65 -37 82 -52 l30 -25
35 40 c20 24 43 40 55 40 l22 0 0 -350 0 -350 -22 0 c-16 0 -32 15 -53 45 -16
25 -33 45 -38 45 -4 0 -26 -13 -48 -30 -181 -131 -433 -68 -525 132 -26 57
-29 72 -28 168 0 114 13 156 71 235 91 124 285 171 419 102z m849 12 c31 -11
76 -36 100 -55 l44 -33 32 39 c21 26 40 40 56 40 l24 0 -3 -352 -3 -353 -27
-57 c-33 -71 -101 -138 -175 -175 -47 -22 -74 -28 -150 -31 l-93 -4 0 91 0 91
58 0 c82 0 126 15 161 56 43 48 42 68 -1 46 -48 -24 -163 -28 -233 -7 -105 30
-175 90 -222 190 -25 53 -28 71 -28 160 0 89 3 107 28 160 61 131 184 214 319
215 34 0 80 -8 113 -21z m938 -17 c76 -38 129 -92 166 -171 23 -49 26 -68 26
-161 0 -95 -3 -111 -28 -162 -36 -74 -101 -139 -175 -175 -51 -25 -68 -28
-152 -28 -76 1 -105 5 -143 23 -71 32 -149 111 -183 185 -26 54 -29 73 -29
157 0 86 3 101 31 160 33 68 60 101 120 146 96 73 248 84 367 26z m1423 5 c28
-14 65 -37 82 -52 l30 -25 35 40 c20 24 43 40 55 40 l22 0 0 -350 0 -350 -22
0 c-16 0 -32 15 -53 45 -16 25 -33 45 -38 45 -4 0 -26 -13 -48 -30 -181 -131
-433 -68 -525 132 -26 57 -29 72 -28 168 0 114 13 156 71 235 91 124 285 171
419 102z m-3866 -347 l0 -350 -90 0 -90 0 0 350 0 350 90 0 90 0 0 -350z
m2875 311 l27 -40 36 24 c65 43 117 55 233 55 l109 0 0 -89 0 -89 -104 -4
c-118 -3 -147 -16 -178 -79 -15 -29 -18 -63 -18 -236 l0 -203 -90 0 -90 0 0
350 0 350 24 0 c16 0 32 -12 51 -39z"/>
<path d="M5485 8604 c-280 -163 -625 -362 -765 -443 l-255 -148 0 -888 0 -888
305 -176 c168 -98 513 -298 767 -445 l463 -267 617 357 c340 196 686 396 768
444 l150 87 0 888 0 888 -150 87 c-456 265 -1384 800 -1387 800 -1 -1 -232
-134 -513 -296z m672 -730 c76 -41 145 -79 153 -83 11 -6 16 -29 18 -84 l3
-75 174 -97 c129 -71 176 -102 180 -118 3 -12 6 -89 8 -171 l2 -149 69 -37 69
-36 -2 -180 c-2 -122 -6 -183 -14 -190 -7 -6 -79 -48 -162 -93 l-150 -83 -42
23 -43 22 -200 -112 c-111 -61 -210 -111 -220 -111 -10 0 -109 50 -220 111
l-200 112 -43 -23 -42 -22 -160 89 -160 89 0 184 0 184 68 39 67 39 0 153 c0
84 3 160 6 169 3 9 84 59 180 112 l174 96 0 62 c0 35 6 70 13 80 18 24 287
175 314 175 13 1 85 -33 160 -75z"/>
<path d="M5886 7812 l-98 -55 28 -15 c16 -8 63 -34 105 -57 l77 -42 107 57
107 57 -103 57 c-56 31 -107 56 -113 55 -6 -1 -55 -26 -110 -57z"/>
<path d="M5752 7573 l3 -118 95 -52 c52 -29 99 -53 103 -53 4 0 6 52 5 116
l-3 116 -99 54 c-54 30 -101 54 -103 54 -2 0 -2 -53 -1 -117z"/>
<path d="M6140 7635 l-95 -52 -3 -117 c-1 -64 1 -116 5 -116 4 0 51 24 103 53
l95 52 3 118 c1 64 -1 117 -5 116 -4 -1 -51 -25 -103 -54z"/>
<path d="M5525 7466 l-130 -73 -3 -123 c-1 -67 1 -120 5 -118 4 2 29 14 54 27
l47 24 148 -82 c82 -45 155 -85 163 -89 12 -7 14 -41 12 -187 -1 -99 -5 -183
-7 -187 -2 -4 -38 -26 -80 -48 -41 -23 -74 -43 -72 -45 9 -9 332 -185 338
-185 6 0 328 176 338 185 2 1 -32 22 -75 46 l-78 44 -3 182 -2 182 37 24 c21
13 94 54 162 92 l123 68 47 -24 c25 -13 50 -25 54 -27 4 -2 6 51 5 118 l-3
123 -130 73 c-71 40 -133 73 -137 74 -5 0 -8 -24 -8 -53 0 -29 -6 -60 -12 -69
-15 -18 -300 -178 -318 -178 -18 0 -303 160 -317 178 -7 9 -13 40 -13 69 0 29
-3 53 -7 53 -5 -1 -66 -34 -138 -74z"/>
<path d="M5392 7061 l-104 -58 34 -20 c18 -11 65 -37 104 -58 l70 -38 90 48
c49 27 95 53 102 58 14 11 8 15 -118 84 l-75 41 -103 -57z"/>
<path d="M6402 7061 c-56 -31 -102 -58 -102 -61 0 -3 47 -29 103 -59 l103 -54
70 38 c38 21 84 47 102 58 l33 20 -38 21 c-21 12 -68 38 -104 58 l-66 36 -101
-57z"/>
<path d="M5250 6816 l0 -115 99 -55 c54 -31 102 -56 105 -56 4 0 5 53 4 117
l-3 118 -95 52 c-52 28 -98 52 -102 52 -5 1 -8 -50 -8 -113z"/>
<path d="M5630 6876 l-95 -53 -3 -116 c-1 -65 0 -117 4 -117 4 0 53 26 110 57
l104 58 0 112 c0 84 -3 113 -12 112 -7 0 -56 -24 -108 -53z"/>
<path d="M6250 6817 l0 -112 104 -58 c57 -31 106 -57 110 -57 4 0 5 52 4 117
l-3 116 -95 53 c-52 29 -101 53 -107 53 -10 1 -13 -28 -13 -112z"/>
<path d="M6640 6877 l-95 -52 -3 -118 c-1 -64 0 -117 4 -117 3 0 51 25 105 56
l99 55 0 115 c0 63 -3 114 -7 113 -5 0 -51 -24 -103 -52z"/>
<path d="M3600 3880 l0 -280 63 0 c130 0 225 51 281 150 27 48 31 65 31 130
-1 64 -5 83 -30 129 -54 98 -153 151 -282 151 l-63 0 0 -280z"/>
<path d="M4960 3938 c-83 -42 -115 -130 -86 -232 43 -145 225 -168 312 -38 63
94 24 226 -81 273 -53 25 -92 24 -145 -3z"/>
<path d="M5857 3945 c-56 -20 -86 -52 -104 -114 -18 -64 -8 -132 29 -183 24
-34 89 -67 131 -68 36 0 95 25 126 53 29 27 61 93 61 127 0 76 -46 150 -115
181 -47 22 -77 23 -128 4z"/>
<path d="M6720 3938 c-111 -56 -130 -211 -36 -304 122 -122 316 -12 292 166
-8 61 -48 117 -99 141 -56 25 -103 24 -157 -3z"/>
<path d="M8170 3938 c-83 -42 -115 -130 -86 -232 43 -145 225 -168 312 -38 63
94 24 226 -81 273 -53 25 -92 24 -145 -3z"/>
</g>
</svg>
